<?xml version="1.0" encoding="utf-8"?>
<!-- Generator: Adobe Illustrator 15.1.0, SVG Export Plug-In . SVG Version: 6.00 Build 0)  -->
<!DOCTYPE svg PUBLIC "-//W3C//DTD SVG 1.1//EN" "http://www.w3.org/Graphics/SVG/1.1/DTD/svg11.dtd">
<svg version="1.1" id="Layer_1" xmlns="http://www.w3.org/2000/svg" xmlns:xlink="http://www.w3.org/1999/xlink" x="0px" y="0px"
	 width="24px" height="24px" viewBox="0 0 24 24" enable-background="new 0 0 24 24" xml:space="preserve">
<path fill="#3B79C4" d="M12.042,6c2.409,0,4.365,2.55,4.365,5.7c0,2.101-1.354,3.75-1.354,3.75c-0.451,0.602-0.301,1.5,0.451,1.801
	l5.42,2.551c0.753,0.449,1.656,1.349,1.656,2.25V24H1.505v-1.801c0-0.75,0.903-1.8,1.656-2.25L8.58,17.25
	c0.752-0.449,0.902-1.199,0.451-1.949c0,0-1.354-1.652-1.354-3.75C7.677,8.55,9.633,6,12.042,6z"/>
<path fill="#4EC43D" d="M17.911,11.7c0,1.65-0.602,3.15-0.602,3.15c-0.301,0.75,0,1.65,0.753,2.099l2.258,1.05h3.763V12.6
	l-2.56-1.199C20.771,10.95,20.621,10.2,21.072,9.6c0,0,1.355-1.65,1.355-3.75C22.428,2.55,20.47,0,18.063,0
	c-2.258,0-3.914,2.1-4.215,4.8C16.105,5.85,17.911,8.4,17.911,11.7z"/>
<path fill="#CC3232" d="M2.559,11.4L0,12.6V18h3.914l2.107-1.051c0.753-0.449,1.204-1.35,0.753-2.1c0,0-0.602-1.5-0.602-3.151
	c0-3.149,1.806-5.85,4.214-6.899C9.935,2.1,8.278,0,6.021,0C3.612,0,1.656,2.55,1.656,5.7c0,2.101,1.354,3.75,1.354,3.75
	C3.461,10.05,3.312,10.95,2.559,11.4z"/>
</svg>
